<?xml version="1.0" standalone="no"?>
<!DOCTYPE svg PUBLIC "-//W3C//DTD SVG 20010904//EN"
 "http://www.w3.org/TR/2001/REC-SVG-20010904/DTD/svg10.dtd">
<svg version="1.0" xmlns="http://www.w3.org/2000/svg"
 width="512.000000pt" height="512.000000pt" viewBox="0 0 512.000000 512.000000"
 preserveAspectRatio="xMidYMid meet">

<g transform="translate(0.000000,512.000000) scale(0.100000,-0.100000)"
fill="#70adcf" stroke="none">
<path d="M4786 4655 c-55 -19 -107 -64 -133 -116 -22 -43 -22 -52 -23 -348 l0
-303 -59 54 c-394 365 -898 604 -1456 690 -170 26 -535 31 -705 10 -887 -112
-1647 -625 -2072 -1397 -110 -201 -191 -405 -249 -631 -164 -643 -95 -1299
197 -1889 113 -229 156 -269 290 -270 61 0 77 4 120 30 70 44 107 109 112 194
4 65 2 69 -68 209 -136 276 -199 473 -241 757 -20 136 -18 474 4 610 82 503
292 919 637 1265 324 324 731 539 1190 627 185 35 485 43 681 18 383 -48 741
-193 1057 -427 86 -63 332 -292 332 -308 0 -3 -190 -6 -423 -6 l-423 1 -49
-30 c-92 -57 -138 -180 -105 -280 16 -48 72 -110 124 -138 39 -21 57 -22 416
-28 206 -4 515 -7 686 -8 l310 -1 53 26 c59 30 105 85 121 146 7 26 8 252 3
705 l-9 668 -25 50 c-55 109 -181 160 -293 120z"/>
</g>
</svg>
